<mxfile host="app.diagrams.net" modified="2020-12-25T05:53:32.308Z" agent="5.0 (Windows NT 10.0; Win64; x64) AppleWebKit/537.36 (KHTML, like Gecko) Chrome/87.0.4280.88 Safari/537.36" etag="cZJ9kUNG0R2E_dbGHLCU" version="14.0.5" type="github">
  <diagram id="cTgDgX14xikcMWw0g8CN" name="第 1 页">
    <mxGraphModel dx="1422" dy="794" grid="1" gridSize="10" guides="1" tooltips="1" connect="1" arrows="1" fold="1" page="1" pageScale="1" pageWidth="827" pageHeight="1169" math="0" shadow="0">
      <root>
        <mxCell id="0" />
        <mxCell id="1" parent="0" />
        <mxCell id="xF1rdSyoxAT8YF1817bv-25" value="" style="group;shadow=0;strokeColor=#666666;fontColor=#333333;fillColor=#999999;" parent="1" vertex="1" connectable="0">
          <mxGeometry x="280" y="120" width="680" height="360" as="geometry" />
        </mxCell>
        <mxCell id="xF1rdSyoxAT8YF1817bv-24" value="" style="rounded=0;whiteSpace=wrap;html=1;fontSize=12;fillColor=#d5e8d4;strokeColor=#82b366;" parent="xF1rdSyoxAT8YF1817bv-25" vertex="1">
          <mxGeometry y="246.85714285714283" width="680" height="113.14285714285714" as="geometry" />
        </mxCell>
        <mxCell id="xF1rdSyoxAT8YF1817bv-23" value="" style="rounded=0;whiteSpace=wrap;html=1;fontSize=12;fillColor=#fff2cc;strokeColor=#d6b656;" parent="xF1rdSyoxAT8YF1817bv-25" vertex="1">
          <mxGeometry y="123.42857142857142" width="680" height="123.42857142857142" as="geometry" />
        </mxCell>
        <mxCell id="xF1rdSyoxAT8YF1817bv-9" value="" style="rounded=0;whiteSpace=wrap;html=1;fontSize=12;fillColor=#dae8fc;strokeColor=#6c8ebf;" parent="xF1rdSyoxAT8YF1817bv-25" vertex="1">
          <mxGeometry width="680" height="123.42857142857142" as="geometry" />
        </mxCell>
        <mxCell id="xF1rdSyoxAT8YF1817bv-26" value="检索服务" style="rounded=1;whiteSpace=wrap;html=1;fontSize=12;strokeColor=#666666;fontColor=#333333;fillColor=#999999;" parent="xF1rdSyoxAT8YF1817bv-25" vertex="1">
          <mxGeometry x="520" y="150" width="127.5" height="60" as="geometry" />
        </mxCell>
        <mxCell id="xF1rdSyoxAT8YF1817bv-20" value="业务存储" style="shape=cylinder3;whiteSpace=wrap;html=1;boundedLbl=1;backgroundOutline=1;size=15;fontSize=12;" parent="xF1rdSyoxAT8YF1817bv-25" vertex="1">
          <mxGeometry x="210" y="263.43" width="70" height="80" as="geometry" />
        </mxCell>
        <mxCell id="g92D4L3bf6l_4YQzv_V_-1" value="缓存" style="shape=cylinder3;whiteSpace=wrap;html=1;boundedLbl=1;backgroundOutline=1;size=15;fontSize=12;" vertex="1" parent="xF1rdSyoxAT8YF1817bv-25">
          <mxGeometry x="330" y="263.43" width="70" height="80" as="geometry" />
        </mxCell>
        <mxCell id="xF1rdSyoxAT8YF1817bv-3" value="" style="edgeStyle=orthogonalEdgeStyle;rounded=0;orthogonalLoop=1;jettySize=auto;html=1;fontSize=12;" parent="1" source="xF1rdSyoxAT8YF1817bv-1" edge="1">
          <mxGeometry relative="1" as="geometry">
            <mxPoint x="280" y="190" as="targetPoint" />
          </mxGeometry>
        </mxCell>
        <mxCell id="xF1rdSyoxAT8YF1817bv-1" value="应用" style="rounded=1;whiteSpace=wrap;html=1;fontSize=12;" parent="1" vertex="1">
          <mxGeometry x="80" y="160" width="120" height="60" as="geometry" />
        </mxCell>
        <mxCell id="xF1rdSyoxAT8YF1817bv-2" value="数据同步服务" style="whiteSpace=wrap;html=1;rounded=1;fontSize=12;" parent="1" vertex="1">
          <mxGeometry x="320" y="160" width="120" height="60" as="geometry" />
        </mxCell>
        <mxCell id="xF1rdSyoxAT8YF1817bv-8" value="大数据存储" style="shape=cylinder3;whiteSpace=wrap;html=1;boundedLbl=1;backgroundOutline=1;size=15;fontSize=12;" parent="1" vertex="1">
          <mxGeometry x="344" y="380" width="70" height="80" as="geometry" />
        </mxCell>
        <mxCell id="xF1rdSyoxAT8YF1817bv-10" value="管理系统" style="rounded=1;whiteSpace=wrap;html=1;fontSize=12;" parent="1" vertex="1">
          <mxGeometry x="480" y="160" width="120" height="60" as="geometry" />
        </mxCell>
        <mxCell id="xF1rdSyoxAT8YF1817bv-12" value="binlog同步" style="edgeStyle=orthogonalEdgeStyle;rounded=0;orthogonalLoop=1;jettySize=auto;html=1;fontSize=12;exitX=1;exitY=0.5;exitDx=0;exitDy=0;fillColor=#0050ef;" parent="1" source="xF1rdSyoxAT8YF1817bv-15" edge="1">
          <mxGeometry relative="1" as="geometry">
            <mxPoint x="200" y="290" as="sourcePoint" />
            <mxPoint x="280" y="290" as="targetPoint" />
          </mxGeometry>
        </mxCell>
        <mxCell id="xF1rdSyoxAT8YF1817bv-15" value="DB" style="shape=cylinder;whiteSpace=wrap;html=1;boundedLbl=1;backgroundOutline=1;rounded=1;" parent="1" vertex="1">
          <mxGeometry x="110" y="250" width="60" height="80" as="geometry" />
        </mxCell>
        <mxCell id="xF1rdSyoxAT8YF1817bv-18" value="API" style="rounded=1;whiteSpace=wrap;html=1;fontSize=12;" parent="1" vertex="1">
          <mxGeometry x="640" y="160" width="120" height="60" as="geometry" />
        </mxCell>
        <mxCell id="xF1rdSyoxAT8YF1817bv-19" value="数据拉取服务" style="rounded=1;whiteSpace=wrap;html=1;fontSize=12;" parent="1" vertex="1">
          <mxGeometry x="320" y="270" width="120" height="60" as="geometry" />
        </mxCell>
        <mxCell id="xF1rdSyoxAT8YF1817bv-21" value="定时任务" style="rounded=1;whiteSpace=wrap;html=1;fontSize=12;" parent="1" vertex="1">
          <mxGeometry x="480" y="270" width="120" height="60" as="geometry" />
        </mxCell>
        <mxCell id="xF1rdSyoxAT8YF1817bv-22" value="流处理" style="rounded=1;whiteSpace=wrap;html=1;fontSize=12;strokeColor=#666666;fontColor=#333333;fillColor=#999999;" parent="1" vertex="1">
          <mxGeometry x="640" y="270" width="120" height="60" as="geometry" />
        </mxCell>
      </root>
    </mxGraphModel>
  </diagram>
</mxfile>
